<svg width="20" height="20" viewBox="0 0 20 20" fill="none" xmlns="http://www.w3.org/2000/svg">
<path d="M5.5 17C6.32843 17 7 17.6716 7 18.5C7 19.3284 6.32843 20 5.5 20C4.67157 20 4 19.3284 4 18.5C4 17.6716 4.67157 17 5.5 17ZM15.5 17C16.3284 17 17 17.6716 17 18.5C17 19.3284 16.3284 20 15.5 20C14.6716 20 14 19.3284 14 18.5C14 17.6716 14.6716 17 15.5 17ZM1 0C2.72559 0 4.02275 1.28286 4.1454 3H17.8018C19.0496 3 19.9927 4.13009 19.7695 5.35777L18.1332 14.3578C17.9603 15.3088 17.132 16 16.1654 16H4.93112C3.88184 16 3.01096 15.1891 2.9362 14.1425L2.13522 2.92875C2.09111 2.31124 1.56456 2 1 2C0.44772 2 0 1.55228 0 1C0 0.44772 0.44772 0 1 0Z" fill="#555555"/>
</svg>
