<svg width="40" height="40" viewBox="0 0 40 40" fill="none" xmlns="http://www.w3.org/2000/svg">
<path d="M38.075 26.3917C35.4431 33.8345 28.3441 39.1667 19.9999 39.1667C11.6557 39.1667 4.55695 33.8347 1.92493 26.3919C7.18129 29.6313 13.3723 31.5 19.9997 31.5C26.6274 31.5 32.8186 29.6313 38.075 26.3917ZM37.4914 12.1521C38.5678 14.5474 39.1666 17.2038 39.1666 20C39.1666 20.3218 39.1587 20.6416 39.143 20.9595C33.8965 25.1568 27.2413 27.6667 19.9997 27.6667C12.7585 27.6667 6.10334 25.1568 0.856865 20.9595C0.841187 20.6417 0.833252 20.3218 0.833252 20C0.833252 17.2038 1.43206 14.5474 2.50842 12.1521C7.35415 15.8721 13.4188 18.0834 19.9999 18.0834C26.581 18.0834 32.6457 15.8721 37.4914 12.1521ZM19.9999 0.833374C26.4039 0.833374 32.0743 3.97416 35.555 8.79939C31.292 12.2103 25.8841 14.25 19.9999 14.25C14.1157 14.25 8.70782 12.2103 4.44483 8.79939C7.92542 3.97416 13.5959 0.833374 19.9999 0.833374Z" fill="#FFCB98"/>
</svg>
