<svg width="18" height="19" viewBox="0 0 18 19" fill="none" xmlns="http://www.w3.org/2000/svg">
<path d="M12 17C12 18.0544 11.1841 18.9182 10.1493 18.9945L10 19H8C6.94564 19 6.08183 18.1841 6.00548 17.1493L6 17H12ZM9.0002 0C12.7857 0 15.8693 3.00479 15.9961 6.75935L16.0002 7V10.7639L17.8222 14.4081C18.1705 15.1047 17.7047 15.9183 16.9532 15.9943L16.8384 16H1.16197C0.383187 16 -0.136301 15.2195 0.131895 14.5134L0.178098 14.4081L2.00016 10.7639V7C2.00016 3.13401 5.13417 0 9.0002 0Z" fill="#555555"/>
</svg>
