<svg width="17" height="17" viewBox="0 0 17 17" fill="none" xmlns="http://www.w3.org/2000/svg">
<path fill-rule="evenodd" clip-rule="evenodd" d="M7.75008 0.666626C3.83806 0.666626 0.666748 3.83794 0.666748 7.74996C0.666748 11.662 3.83806 14.8333 7.75008 14.8333C9.40583 14.8333 10.9289 14.2652 12.135 13.3133L15.1786 16.3569C15.504 16.6823 16.0317 16.6823 16.3571 16.3569C16.6825 16.0315 16.6825 15.5038 16.3571 15.1784L13.3135 12.1348C14.2653 10.9287 14.8334 9.40563 14.8334 7.74996C14.8334 3.83794 11.6621 0.666626 7.75008 0.666626ZM2.33341 7.74996C2.33341 4.75842 4.75854 2.33329 7.75008 2.33329C10.7417 2.33329 13.1667 4.75842 13.1667 7.74996C13.1667 10.7415 10.7417 13.1666 7.75008 13.1666C4.75854 13.1666 2.33341 10.7415 2.33341 7.74996Z" fill="#BEBEBE"/>
</svg>
