<svg width="701" height="142" viewBox="0 0 701 142" fill="none" xmlns="http://www.w3.org/2000/svg">
<g clip-path="url(#clip0_0_1)">
<path d="M656.432 61.509L656.857 62.438C658.676 66.2 661.541 69.3577 665.107 71.5332L665.769 71.9212C666.077 72.0942 666.077 72.5372 665.769 72.7105C665.546 72.836 665.325 72.9655 665.107 73.0985C661.541 75.2737 658.676 78.4317 656.857 82.1937L656.432 83.1225C656.266 83.4972 655.734 83.4972 655.568 83.1225L655.143 82.1937C653.324 78.4317 650.459 75.2737 646.893 73.0985C646.675 72.9655 646.454 72.836 646.231 72.7105C645.923 72.5372 645.923 72.0942 646.231 71.9212L646.893 71.5332C650.459 69.3577 653.324 66.2 655.143 62.438L655.568 61.509C655.734 61.1345 656.266 61.1345 656.432 61.509ZM678.695 35.8248C678.937 36.3693 679.179 36.9136 679.438 37.4502C682.621 44.0337 687.634 49.5601 693.875 53.3668C694.257 53.5997 694.643 53.8261 695.034 54.046C695.573 54.3487 695.573 55.1242 695.034 55.427C694.643 55.647 694.257 55.8732 693.875 56.1062C687.634 59.9127 682.621 65.4392 679.438 72.0227C679.179 72.5592 678.937 73.1035 678.695 73.6482C678.403 74.3037 677.473 74.3037 677.181 73.6482C676.939 73.1035 676.697 72.5592 676.437 72.0227C673.255 65.4392 668.242 59.9127 662.001 56.1062C661.619 55.8732 661.233 55.647 660.842 55.427C660.303 55.1242 660.303 54.3487 660.842 54.046C661.233 53.8261 661.619 53.5997 662.001 53.3668C668.242 49.5601 673.255 44.0337 676.437 37.4502C676.696 36.9144 676.939 36.3695 677.181 35.8248C677.473 35.1691 678.403 35.1691 678.695 35.8248Z" fill="#B07939"/>
</g>
<circle cx="63.5" cy="78.5" r="63.5" fill="#F1E5DA"/>
<circle cx="195" cy="45" r="45" fill="#E0D3C8"/>
<circle cx="285.5" cy="27.5" r="23.5" fill="#D5C9BF"/>
<ellipse cx="348.5" cy="28" rx="12.5" ry="13" fill="#C8B3A1"/>
<defs>
<clipPath id="clip0_0_1">
<rect width="60" height="60" fill="white" transform="translate(641 29)"/>
</clipPath>
</defs>
</svg>
